<?xml version="1.0" encoding="UTF-8"?>
<svg width="119px" height="40px" viewBox="0 0 119 40" version="1.1" xmlns="http://www.w3.org/2000/svg" xmlns:xlink="http://www.w3.org/1999/xlink">
    <!-- Generator: Sketch 48.1 (47250) - http://www.bohemiancoding.com/sketch -->
    <title>Mjolner_logo_space</title>
    <desc>Created with Sketch.</desc>
    <defs></defs>
    <g id="logo_download" stroke="none" stroke-width="1" fill="none" fill-rule="evenodd" transform="translate(-238.000000, -145.000000)">
        <g id="Mjolner_logo_space" transform="translate(238.000000, 145.000000)" fill="#425E74">
            <g id="Group">
                <path d="M36.1485751,8.85746789 L32.6302028,8.85746789 C32.280892,8.85746789 31.9982212,9.14113761 31.9982212,9.49086239 L31.9982212,31.0259083 C31.9982212,33.3293945 31.4131074,33.762422 29.4091474,36.2178349 C29.1901874,36.4860917 29.1242797,36.8438899 29.3505628,37.1055413 L32.0472858,39.3719633 C32.157132,39.4993028 32.3134797,39.5782018 32.4819105,39.589945 C32.4961905,39.5903119 32.5108366,39.5914128 32.5254828,39.5914128 C32.6781689,39.5914128 32.8465997,39.5543486 32.942532,39.4339817 C36.393532,35.1070092 36.7801905,35.0948991 36.7801905,31.2361835 L36.7801905,9.49086239 C36.7801905,9.14113761 36.4975197,8.85746789 36.1485751,8.85746789" id="Fill-1"></path>
                <path d="M26.8107366,1.34348624 L22.2451643,1.34348624 C21.9815335,1.34348624 21.7453643,1.50788991 21.6530935,1.75559633 L14.2029612,21.7831193 L6.75319508,1.75559633 C6.66092431,1.50788991 6.42512123,1.34348624 6.16112431,1.34348624 L1.595552,1.34348624 C1.25539508,1.34348624 0.976019692,1.61357798 0.963936615,1.95486239 L0.000219692307,29.9130275 C-0.00527261538,30.0844037 0.0584381538,30.2513761 0.177438154,30.3750459 C0.296438154,30.4983486 0.460475077,30.5680734 0.631835077,30.5680734 L4.108832,30.5680734 C4.45191815,30.5680734 4.73202585,30.293945 4.74044738,29.9500917 L5.20656123,10.5526606 L11.1814597,26.546789 C11.2740966,26.7944954 11.5098997,26.9581651 11.7735305,26.9581651 L16.632392,26.9581651 C16.8960228,26.9581651 17.1314597,26.7944954 17.2240966,26.546789 L23.1997274,10.5526606 L23.6658412,29.9500917 C23.6738966,30.293945 23.9543705,30.5680734 24.2974566,30.5680734 L27.7740874,30.5680734 C27.9450812,30.5680734 28.1094843,30.4983486 28.2284843,30.3750459 C28.3474843,30.2513761 28.4115612,30.0844037 28.4053366,29.9130275 L27.442352,1.95486239 C27.4306351,1.61357798 27.1512597,1.34348624 26.8107366,1.34348624" id="Fill-3"></path>
                <path d="M36.1485751,0.503816514 L32.6302028,0.503816514 C32.280892,0.503816514 31.9982212,0.787486239 31.9982212,1.13721101 L31.9982212,6.21647706 C31.9982212,6.56656881 32.280892,6.84950459 32.6302028,6.84950459 L36.1485751,6.84950459 C36.4975197,6.84950459 36.7801905,6.56656881 36.7801905,6.21647706 L36.7801905,1.13721101 C36.7801905,0.787486239 36.4975197,0.503816514 36.1485751,0.503816514" id="Fill-6"></path>
                <path d="M64.0847954,0.000110091743 C64.0547708,0.000110091743 64.0251123,0.00231192661 63.9954538,0.00634862385 L60.4763492,0.510201835 C60.1651185,0.554972477 59.9337092,0.82212844 59.9337092,1.13699083 L59.9337092,29.935156 C59.9337092,30.2841468 60.21638,30.5678165 60.5660569,30.5678165 L64.0847954,30.5678165 C64.43374,30.5678165 64.7167769,30.2841468 64.7167769,29.935156 L64.7167769,0.633137615 C64.7167769,0.449651376 64.6373215,0.27533945 64.4989154,0.154972477 C64.3832108,0.0544220183 64.2363831,0.000110091743 64.0847954,0.000110091743" id="Fill-8"></path>
                <path d="M80.5445458,8.43779817 C78.1876135,8.43779817 75.0456474,9.37100917 72.8055182,10.3431193 L72.6209766,9.37247706 C72.5642228,9.07412844 72.3038874,8.85761468 72.000712,8.85761468 L69.1516689,8.85761468 C68.8030905,8.85761468 68.5200535,9.1412844 68.5200535,9.49100917 L68.5200535,29.9350459 C68.5200535,30.2844037 68.8030905,30.5680734 69.1516689,30.5680734 L72.6700412,30.5680734 C73.0189858,30.5680734 73.3020228,30.2844037 73.3020228,29.9350459 L73.3020228,14.8766972 C75.5044382,13.7992661 78.2751243,13.0627523 79.497712,13.0627523 C80.497312,13.0627523 80.8345397,13.3794495 80.8345397,14.3188991 L80.8345397,29.9350459 C80.8345397,30.2844037 81.1175766,30.5680734 81.4661551,30.5680734 L84.9845274,30.5680734 C85.3342043,30.5680734 85.6168751,30.2844037 85.6168751,29.9350459 L85.6168751,14.2766972 C85.6168751,11.612844 84.7370074,8.43779817 80.5445458,8.43779817" id="Fill-10"></path>
                <path d="M97.1187194,12.6433028 C99.8055563,12.6433028 100.758289,13.6418349 100.758289,16.4594495 L100.758289,17.5056881 L93.2682455,17.5056881 L93.2682455,16.4594495 C93.2682455,13.7486239 94.3839163,12.6433028 97.1187194,12.6433028 M97.1187194,8.43779817 C91.4711625,8.43779817 88.4859102,11.2983486 88.4859102,16.7115596 L88.4859102,22.84 C88.4859102,28.3233028 91.336784,30.9882569 97.2018363,30.9882569 C99.7985994,30.9882569 102.573313,30.533945 104.625239,29.773578 C104.909009,29.6678899 105.078538,29.3754128 105.029839,29.0763303 L104.569218,26.2642202 C104.541024,26.0884404 104.438867,25.9324771 104.289476,25.8355963 C104.186221,25.7680734 104.066855,25.733211 103.945292,25.733211 C103.891833,25.733211 103.837642,25.7398165 103.78455,25.7548624 C101.416633,26.3809174 99.300264,26.6994495 97.4951255,26.6994495 C94.3235009,26.6994495 93.2682455,26.1354128 93.2682455,22.7988991 L93.2682455,21.7104587 L104.783418,21.7104587 C105.132362,21.7104587 105.415399,21.427156 105.415399,21.0774312 L105.415399,16.7952294 C105.415399,11.2499083 102.623476,8.43779817 97.1187194,8.43779817" id="Fill-12"></path>
                <path d="M118.371021,8.98198165 C118.343559,8.78748624 118.227855,8.61757798 118.057959,8.52033028 C117.961295,8.46565138 117.853646,8.43776147 117.74563,8.43776147 C117.663246,8.43776147 117.580495,8.45390826 117.502138,8.48620183 C115.899849,9.15555963 114.163181,10.1210642 112.679892,11.1573945 L112.554301,9.44436697 C112.529402,9.1133578 112.254787,8.85757798 111.923418,8.85757798 L108.866033,8.85757798 C108.517089,8.85757798 108.234052,9.14124771 108.234052,9.49097248 L108.234052,29.9350092 C108.234052,30.284367 108.517089,30.5680367 108.866033,30.5680367 L112.384039,30.5680367 C112.733716,30.5680367 113.016021,30.284367 113.016021,29.9350092 L113.016021,16.1606972 C114.292799,15.2755596 116.480569,13.8333578 118.47867,12.8751927 C118.728387,12.7559266 118.870821,12.4880367 118.832009,12.2139083 L118.371021,8.98198165 Z" id="Fill-14"></path>
                <path d="M44.1784022,23.878789 C44.1319006,23.5690642 44.1099314,23.2156697 44.1099314,22.798789 L44.1099314,16.6274128 C44.1099314,13.9951193 45.4266206,12.7697982 48.252596,12.7697982 C49.1405191,12.7697982 49.9006545,12.905945 50.5113991,13.1760367 C50.5941498,13.2127339 50.6805622,13.2299817 50.7662422,13.2299817 C50.9767806,13.2299817 51.1807283,13.1242936 51.2997283,12.9364037 L53.0338329,10.2024587 C53.1326945,10.0464954 53.1586914,9.85456881 53.1052329,9.67768807 C53.0510422,9.50080734 52.9225222,9.35622018 52.7533591,9.28245872 C51.4714545,8.72172477 49.9574083,8.43768807 48.252596,8.43768807 C42.5808729,8.43768807 39.3279622,11.4688807 39.3279622,16.7536514 L39.3279622,22.6725505 C39.3279622,24.7639266 39.8310575,26.5063119 40.8233345,27.851633 C40.9427006,28.0138349 41.131636,28.1085138 41.331556,28.1085138 C41.3392452,28.1085138 41.3465683,28.1085138 41.3538914,28.1081468 C41.5618668,28.1008073 41.7529991,27.9910826 41.864676,27.8149358 L44.0864975,24.3118165 C44.1681498,24.1833761 44.2007375,24.0299817 44.1784022,23.878789" id="Fill-17"></path>
                <path d="M55.1009545,11.2318532 C55.0932652,11.2318532 55.0852098,11.2322202 55.0771545,11.2322202 C54.8695452,11.2402936 54.6791452,11.3500183 54.5678345,11.5257982 L52.367616,14.994422 C52.2790068,15.1335046 52.2482498,15.3023119 52.281936,15.4637798 C52.3591945,15.834055 52.3965422,16.2146055 52.3965422,16.6274495 L52.3965422,22.7988257 C52.3965422,25.4311193 51.0798529,26.6568073 48.2527791,26.6568073 C47.2714868,26.6568073 46.4941422,26.5213945 45.8771729,26.2428624 C45.7936898,26.2043303 45.7050806,26.1867156 45.617936,26.1867156 C45.4073975,26.1867156 45.2034498,26.2924037 45.0844498,26.4802936 L43.3631606,29.194055 C43.2642991,29.3496514 43.237936,29.540844 43.2913945,29.7162569 C43.3441206,29.8927706 43.4704437,30.0369908 43.6381422,30.1122202 C44.9343268,30.6935046 46.4871852,30.9881835 48.2527791,30.9881835 C53.9256006,30.9881835 57.1788775,27.9569908 57.1788775,22.6725872 L57.1788775,16.7536881 C57.1788775,14.6854312 56.6355052,12.8641468 55.6069791,11.4857982 C55.4872468,11.3257982 55.299776,11.2318532 55.1009545,11.2318532" id="Fill-19"></path>
                <polygon id="Fill-21" points="40.9290431 39.6212844 41.5342954 39.6212844 41.5342954 34.9222018 40.9290431 34.9222018"></polygon>
                <polygon id="Fill-23" points="46.4974375 35.6208073 46.4974375 39.6211743 45.9200129 39.6211743 45.9200129 34.9220917 46.750816 34.9220917 48.7924898 38.9441101 48.7924898 34.9220917 49.3695483 34.9220917 49.3695483 39.6211743 48.5391114 39.6211743"></polygon>
                <polygon id="Fill-24" points="53.7200052 39.6213211 53.7200052 34.9222385 56.5079006 34.9222385 56.5079006 35.4653578 54.3256237 35.4653578 54.3256237 37.0319633 56.3599745 37.0319633 56.3599745 37.5750826 54.3256237 37.5750826 54.3256237 39.6213211"></polygon>
                <path d="M61.0064302,38.2525138 C61.0064302,38.8312294 61.358304,39.155633 62.0972025,39.155633 C62.8368332,39.155633 63.1887071,38.8312294 63.1887071,38.2525138 L63.1887071,36.2910459 C63.1887071,35.7126972 62.8368332,35.3879266 62.0972025,35.3879266 C61.358304,35.3879266 61.0064302,35.7126972 61.0064302,36.2910459 L61.0064302,38.2525138 Z M63.7943255,38.2668257 C63.7943255,39.049578 63.3084394,39.6917798 62.0972025,39.6917798 C60.8866978,39.6917798 60.4008117,39.049578 60.4008117,38.2668257 L60.4008117,36.2771009 C60.4008117,35.4936147 60.8866978,34.8517798 62.0972025,34.8517798 C63.3084394,34.8517798 63.7943255,35.4936147 63.7943255,36.2771009 L63.7943255,38.2668257 Z" id="Fill-25"></path>
                <path d="M69.8059492,35.4654679 L68.6445092,35.4654679 L68.6445092,37.3847339 L69.8059492,37.3847339 C70.3833738,37.3847339 70.5803646,37.2225321 70.5803646,36.7638165 L70.5803646,36.0863853 C70.5803646,35.6206972 70.3833738,35.4654679 69.8059492,35.4654679 Z M69.7920354,37.9208807 L68.6445092,37.9208807 L68.6445092,39.6214312 L68.0388908,39.6214312 L68.0388908,34.9223486 L69.8271862,34.9223486 C70.8337431,34.9223486 71.1859831,35.3594128 71.1859831,36.0790459 L71.1859831,36.756844 C71.1859831,37.3142752 70.9813031,37.6951927 70.4393954,37.850422 L71.6575892,39.6214312 L70.9607985,39.6214312 L69.7920354,37.9208807 Z" id="Fill-26"></path>
                <polygon id="Fill-27" points="76.2474375 35.8111193 76.1558991 39.6213945 75.5715175 39.6213945 75.7333575 34.9223119 76.5004498 34.9223119 77.8522898 38.5560734 79.2041298 34.9223119 79.9712222 34.9223119 80.1334283 39.6213945 79.5490468 39.6213945 79.4578745 35.8111193 78.2609175 39.014422 77.4440283 39.014422"></polygon>
                <path d="M86.0393434,35.3595596 L85.2015834,37.9632294 L86.8774695,37.9632294 L86.0393434,35.3595596 Z M88.0315865,39.621211 L87.4193772,39.621211 L87.0323526,38.4924037 L85.0401095,38.4924037 L84.6596757,39.621211 L84.0471003,39.621211 L85.6310818,34.9221284 L86.4479711,34.9221284 L88.0315865,39.621211 Z" id="Fill-28"></path>
                <polygon id="Fill-29" points="92.5371462 35.4654679 91.1358754 35.4654679 91.1358754 34.9223486 94.5433031 34.9223486 94.5433031 35.4654679 93.1427646 35.4654679 93.1427646 39.6214312 92.5371462 39.6214312"></polygon>
                <polygon id="Fill-30" points="98.4712185 39.6212844 99.0768369 39.6212844 99.0768369 34.9222018 98.4712185 34.9222018"></polygon>
                <path d="M103.96283,38.2738349 C103.96283,38.9299817 104.216209,39.1417248 104.983667,39.1417248 C105.26524,39.1417248 105.722932,39.1061284 106.081763,39.0426422 L106.145107,39.564844 C105.807147,39.6422752 105.314304,39.6918165 104.962064,39.6918165 C103.814904,39.6918165 103.357212,39.1978716 103.357212,38.3090642 L103.357212,36.2345688 C103.357212,35.3453945 103.814904,34.8518165 104.962064,34.8518165 C105.314304,34.8518165 105.807147,34.9009908 106.145107,34.978789 L106.081763,35.5006239 C105.722932,35.4371376 105.26524,35.4019083 104.983667,35.4019083 C104.216209,35.4019083 103.96283,35.6136514 103.96283,36.2697982 L103.96283,38.2738349 Z" id="Fill-31"></path>
                <path d="M111.466824,39.6917431 C111.016455,39.6917431 110.474181,39.6073394 110.072876,39.4447706 L110.171372,38.9511927 C110.60087,39.0851376 111.051606,39.1555963 111.481104,39.1555963 C112.234282,39.1555963 112.389166,38.9577982 112.389166,38.4220183 C112.389166,37.787156 112.382209,37.7302752 111.417759,37.5115596 C110.284147,37.2576147 110.150501,37.0388991 110.150501,36.0653211 C110.150501,35.2466055 110.488461,34.8517431 111.649901,34.8517431 C112.058529,34.8517431 112.544049,34.9078899 112.917159,35.0066055 L112.868095,35.5218349 C112.494984,35.4370642 112.051206,35.3878899 111.664181,35.3878899 C110.896722,35.3878899 110.755753,35.5431193 110.755753,36.0862385 C110.755753,36.7354128 110.755753,36.7636697 111.685418,36.9966972 C112.931439,37.306789 112.994784,37.4902752 112.994784,38.4073394 C112.994784,39.226055 112.755319,39.6917431 111.466824,39.6917431" id="Fill-32"></path>
            </g>
        </g>
    </g>
</svg>