<?xml version="1.0" encoding="UTF-8"?>
<svg id="Logo" xmlns="http://www.w3.org/2000/svg" version="1.1" viewBox="0 0 625.3 204.1">
  <!-- Generator: Adobe Illustrator 29.2.1, SVG Export Plug-In . SVG Version: 2.1.0 Build 116)  -->
  <g>
    <path d="M586.5,76.1c0,6.4-1.7,11.4-5.2,14.9-3.4,3.5-8.3,5.2-14.7,5.2s-8.1-1.1-10.8-3.3c-2.6-2.2-4-5.2-4-9.1s1.7-7,5-8.9c2.7-1.6,7-2.7,12.8-3.3l16.9-1.7v6.2h0ZM622.5,117.6V46.1c0-13.3-4.4-23.9-13.3-31.5-9-7.8-21.6-11.7-37.8-11.7s-25.7,3.5-34.8,10.6c-9.1,6.9-14.4,16.3-16.2,28.1h34.1c.4-3.7,2.1-6.7,5-8.9,3-2.4,6.9-3.5,11.8-3.5s8.8,1.3,11.5,3.8c2.5,2.4,3.7,5.6,3.7,9.7v4.7l-22.7,1.9c-16.1,1.3-27.9,4.7-35.4,10.3-7.7,5.7-11.6,14.2-11.6,25.4s3.5,19.2,10.4,25.6c6.9,6.4,16.3,9.5,27.9,9.5s14.6-1.7,20.5-5.1c5.7-3.2,9.6-7.4,11.8-12.5v15h34.9Z"/>
    <path d="M502.7,39.7c-1-11.7-5.8-20.7-14.5-27.2-8.6-6.4-20-9.7-34.4-9.7s-26.2,3.4-35.1,10.3c-8.8,6.7-13.3,15.6-13.3,26.3s2.6,16.7,7.8,22c5,5,13,8.5,23.9,10.4l25.5,4.3c4,.6,6.8,1.7,8.6,3.3,1.7,1.4,2.5,3.3,2.5,5.8s-1.6,5.9-4.7,7.9c-3.1,1.9-7.3,2.9-12.5,2.9s-10.3-1.3-13.8-4c-3.3-2.5-5.4-6.1-6.4-10.8h-32.7c1.4,12.3,6.8,21.9,16.4,28.9,9.4,6.8,21.6,10.3,36.6,10.3s26.2-3.5,35.4-10.4c9.6-7.2,14.4-16.8,14.4-28.8s-2.7-16.9-8.2-22.4c-5.5-5.5-13.9-9.1-25.2-10.8l-25.2-3.9c-3.5-.6-6-1.4-7.5-2.4-1.6-1.1-2.4-2.7-2.4-4.9s1.5-5.3,4.4-7c2.8-1.7,6.7-2.5,11.5-2.5s8.8,1.2,11.7,3.5c2.6,2.1,4.3,5,5,8.9h32.2q0,0,0,0Z"/>
    <path d="M270.5,33.8c-7.9,0-14.2,2.6-19.8,8.2-5.6,5.6-8.3,11.9-8.3,19.9s2.6,14.2,8.2,19.8c5.6,5.6,11.9,8.2,19.9,8.2h66.5c7.9,0,14.2-2.6,19.8-8.2,5.6-5.6,8.3-11.9,8.3-19.8s-2.6-14.2-8.2-19.8c-5.6-5.6-11.9-8.3-19.8-8.3h-66.5ZM270.5,120.3c-16.1,0-30-5.8-41.3-17.1-11.3-11.3-17.1-25.3-17.1-41.3s5.8-30,17.1-41.4c11.3-11.4,25.2-17.1,41.3-17.1h66.5c16.1,0,30,5.8,41.4,17.2,11.3,11.3,17.1,25.2,17.1,41.3s-5.8,30-17.2,41.4c-11.3,11.3-25.2,17.1-41.3,17.1h-66.6Z"/>
    <path d="M208.3,3.8c-1.9-.6-4.7-.8-8.3-.8-8,0-14.5,2.4-19.5,7.2-4.7,4.5-7.7,10.6-9.2,18.4V4.3h-34.5v116.1h36v-51.5c0-10,2.4-17.5,7-22.5,4.8-5.1,12-7.6,21.7-7.6s5.5,0,6.8.2V3.8Z"/>
    <path d="M354.7,44.2c-4.8-4.9-10.7-7.3-17.7-7.3s-12.8,2.4-17.7,7.3c-4.9,4.9-7.4,10.8-7.4,17.7s2.4,12.8,7.4,17.7c4.9,4.9,10.8,7.3,17.7,7.3s12.8-2.4,17.7-7.3c4.9-4.9,7.4-10.8,7.4-17.7s-2.4-12.8-7.4-17.7"/>
    <path d="M93.8,61.9c0,7.7-2.7,14.3-8.2,19.8-5.5,5.5-12.1,8.2-19.8,8.2s-14.3-2.7-19.8-8.2c-5.5-5.5-8.2-12.1-8.2-19.8s2.7-14.3,8.2-19.8c5.5-5.5,12.1-8.2,19.8-8.2s14.4,2.7,19.8,8.2c5.5,5.5,8.2,12.1,8.2,19.8M125.9,61.6c0-32.5-22.9-58.8-51.1-58.8s-27.8,7.1-37.1,18.4V4.3H2.8v152.8h35.9v-53.6c9.2,10.5,22,17,36,17,28.2,0,51.1-26.3,51.1-58.8"/>
  </g>
  <g>
    <path d="M327.1,201.3c-.6,0-1.2,0-1.7-.2-.5-.1-1-.2-1.3-.4l.8-2.8c1.1.3,2,.4,2.9.4.8,0,1.6-.5,2.2-1.1.6-.7,1.2-1.7,1.7-3l1-2.8-10-27.3h3.4l8,22.9h.2l8-22.9h3.4l-11.5,31.4c-.5,1.3-1.1,2.4-1.8,3.3-.7.9-1.5,1.5-2.4,2-.9.4-2,.6-3.1.6Z"/>
    <path d="M362.5,191.7c-2.3,0-4.4-.6-6.2-1.8-1.8-1.2-3.2-2.8-4.2-4.9-1-2.1-1.5-4.5-1.5-7.3s.5-5.2,1.5-7.3c1-2.1,2.4-3.8,4.2-4.9,1.8-1.2,3.9-1.8,6.2-1.8s4.4.6,6.2,1.8c1.8,1.2,3.2,2.8,4.2,4.9,1,2.1,1.5,4.5,1.5,7.3s-.5,5.2-1.5,7.3-2.4,3.7-4.2,4.9c-1.8,1.2-3.9,1.8-6.2,1.8ZM362.5,188.8c1.9,0,3.5-.5,4.8-1.5,1.3-1,2.3-2.4,3-4,.7-1.7,1-3.5,1-5.6s-.3-3.9-1-5.6c-.7-1.7-1.7-3.1-3-4.1-1.3-1-2.9-1.5-4.8-1.5s-3.5.5-4.8,1.5c-1.3,1-2.3,2.4-3,4.1-.7,1.7-1,3.6-1,5.6s.3,3.9,1,5.6c.7,1.7,1.7,3,3,4s2.9,1.5,4.8,1.5Z"/>
    <path d="M398.6,180.8v-16.7h3.1v27.1h-3.1v-4.5h-.2c-.6,1.4-1.6,2.5-3,3.5s-3.1,1.4-5,1.4-3.3-.4-4.6-1.1c-1.3-.8-2.4-1.9-3.2-3.3-.8-1.5-1.1-3.3-1.1-5.4v-17.5h3.1v17.3c0,2.1.6,3.8,1.9,5.1,1.2,1.3,2.8,1.9,4.8,1.9s2.4-.3,3.5-.9c1.1-.6,2.1-1.4,2.8-2.6.7-1.1,1.1-2.5,1.1-4.2Z"/>
    <path d="M410,191.1v-27.1h3.1v4.2h.2c.5-1.4,1.5-2.5,2.8-3.3,1.3-.8,2.9-1.3,4.6-1.3s.5,0,.9,0c.3,0,.6,0,.8,0v3.2c-.1,0-.4,0-.7-.1s-.7,0-1.1,0c-1.4,0-2.7.3-3.8.9-1.1.6-2,1.4-2.6,2.5s-1,2.2-1,3.6v17.5h-3.1Z"/>
    <path d="M445.6,155v36.1h-3.3v-36.1h3.3Z"/>
    <path d="M452.5,158v-3h26.2v3h-11.4v33.1h-3.3v-33.1h-11.4Z"/>
    <path d="M495.9,174.1v3h-15v-3h15Z"/>
    <path d="M520.9,180.8v-16.7h3.1v27.1h-3.1v-4.5h-.2c-.6,1.4-1.6,2.5-3,3.5-1.4.9-3.1,1.4-5,1.4s-3.3-.4-4.6-1.1c-1.3-.8-2.4-1.9-3.2-3.3-.8-1.5-1.1-3.3-1.1-5.4v-17.5h3.1v17.3c0,2.1.6,3.8,1.9,5.1,1.2,1.3,2.8,1.9,4.8,1.9s2.4-.3,3.5-.9c1.1-.6,2.1-1.4,2.8-2.6.7-1.1,1.1-2.5,1.1-4.2Z"/>
    <path d="M535.5,174.2v16.9h-3.1v-27.1h3.1v4.2h.3c.6-1.4,1.6-2.5,3-3.3,1.3-.8,3-1.3,5-1.3s3.4.4,4.8,1.1,2.5,1.9,3.2,3.3c.8,1.5,1.2,3.3,1.2,5.4v17.5h-3.1v-17.3c0-2.2-.6-4-1.9-5.3-1.2-1.3-2.9-1.9-5-1.9s-2.7.3-3.8.9c-1.1.6-2,1.5-2.6,2.6-.6,1.1-1,2.5-1,4.1Z"/>
    <path d="M562.8,159.4c-.6,0-1.2-.2-1.7-.7-.5-.4-.7-1-.7-1.6s.2-1.2.7-1.6,1-.7,1.6-.7,1.2.2,1.7.7.7,1,.7,1.6-.2,1.2-.7,1.6c-.5.4-1,.7-1.6.7ZM561.2,191.1v-27.1h3.2v27.1h-3.2Z"/>
    <path d="M583.2,191.7c-2.3,0-4.4-.6-6.2-1.8-1.8-1.2-3.2-2.8-4.2-4.9-1-2.1-1.5-4.5-1.5-7.3s.5-5.2,1.5-7.3c1-2.1,2.4-3.8,4.2-4.9,1.8-1.2,3.9-1.8,6.2-1.8s4.4.6,6.2,1.8c1.8,1.2,3.2,2.8,4.2,4.9,1,2.1,1.5,4.5,1.5,7.3s-.5,5.2-1.5,7.3-2.4,3.7-4.2,4.9c-1.8,1.2-3.9,1.8-6.2,1.8ZM583.2,188.8c1.9,0,3.5-.5,4.8-1.5,1.3-1,2.3-2.4,3-4,.7-1.7,1-3.5,1-5.6s-.3-3.9-1-5.6c-.7-1.7-1.7-3.1-3-4.1-1.3-1-2.9-1.5-4.8-1.5s-3.5.5-4.8,1.5-2.3,2.4-3,4.1c-.7,1.7-1,3.6-1,5.6s.3,3.9,1,5.6c.7,1.7,1.7,3,3,4,1.3,1,2.9,1.5,4.8,1.5Z"/>
    <path d="M605.1,174.2v16.9h-3.1v-27.1h3.1v4.2h.3c.6-1.4,1.6-2.5,3-3.3,1.3-.8,3-1.3,5-1.3s3.4.4,4.8,1.1,2.5,1.9,3.2,3.3c.8,1.5,1.2,3.3,1.2,5.4v17.5h-3.1v-17.3c0-2.2-.6-4-1.9-5.3s-2.9-1.9-5-1.9-2.7.3-3.8.9c-1.1.6-2,1.5-2.6,2.6-.6,1.1-1,2.5-1,4.1Z"/>
  </g>
</svg>